<?xml version="1.0" standalone="no"?>
<!DOCTYPE svg PUBLIC "-//W3C//DTD SVG 20010904//EN"
 "http://www.w3.org/TR/2001/REC-SVG-20010904/DTD/svg10.dtd">
<svg version="1.0" xmlns="http://www.w3.org/2000/svg"
 width="748.000000pt" height="274.000000pt" viewBox="0 0 748.000000 274.000000"
 preserveAspectRatio="xMidYMid meet">

<g transform="translate(0.000000,274.000000) scale(0.100000,-0.100000)"
fill="#000000" stroke="none">
<path d="M5563 1563 c-172 -2 -313 -7 -313 -12 0 -28 32 -30 345 -14 176 9
324 20 330 24 5 5 -4 8 -20 7 -17 -2 -171 -4 -342 -5z"/>
<path d="M5950 1560 c-11 -7 -7 -10 17 -10 17 0 34 4 37 8 7 11 -36 13 -54 2z"/>
<path d="M4764 1543 c-148 -3 -151 -4 -175 -30 l-24 -26 105 7 c58 3 179 8
270 11 261 9 313 14 299 31 -12 14 -53 15 -475 7z"/>
<path d="M4140 1524 c-234 -7 -622 -19 -864 -28 -241 -9 -472 -16 -514 -16
-71 0 -74 -1 -60 -17 33 -39 30 -46 -6 -15 l-37 32 -107 -5 c-59 -4 -231 -12
-383 -19 -161 -8 -285 -18 -297 -25 -12 -6 -26 -20 -32 -31 -9 -17 -5 -19 37
-26 27 -4 120 -2 208 5 195 14 488 28 730 36 99 3 322 12 495 20 173 8 446 19
605 25 512 19 625 27 646 46 19 17 25 35 12 33 -5 -1 -199 -8 -433 -15z"/>
<path d="M1610 1430 c-63 -4 -131 -8 -150 -9 -20 0 -30 -5 -25 -10 6 -5 91
-14 189 -20 l180 -12 30 31 31 30 -70 -2 c-39 -1 -122 -5 -185 -8z"/>
<path d="M1351 1416 c11 -9 69 -15 64 -6 -3 6 -20 10 -37 10 -17 0 -29 -2 -27
-4z"/>
</g>
</svg>
