<?xml version="1.0" standalone="no"?>
<!DOCTYPE svg PUBLIC "-//W3C//DTD SVG 20010904//EN"
 "http://www.w3.org/TR/2001/REC-SVG-20010904/DTD/svg10.dtd">
<svg version="1.0" xmlns="http://www.w3.org/2000/svg"
 width="748.000000pt" height="274.000000pt" viewBox="0 0 748.000000 274.000000"
 preserveAspectRatio="xMidYMid meet">

<g transform="translate(0.000000,274.000000) scale(0.100000,-0.100000)"
fill="#000000" stroke="none">
<path d="M3690 2320 c-270 -16 -498 -56 -735 -129 -169 -53 -497 -193 -565
-241 -16 -12 -30 -19 -30 -15 0 8 -84 -36 -92 -49 -4 -6 -8 -7 -8 -3 0 4 -69
-28 -152 -71 l-153 -80 -185 -6 c-263 -10 -580 -46 -580 -67 0 -4 -8 -5 -19
-2 -44 11 -537 -146 -574 -183 -5 -5 -14 -9 -21 -9 -7 0 -64 -22 -126 -50
l-114 -50 68 -3 c54 -2 73 1 89 15 11 10 17 12 13 6 -10 -18 -8 -17 91 23 226
92 479 175 579 190 35 5 44 10 39 22 -4 12 -3 13 9 3 11 -9 29 -10 73 -2 101
19 393 41 532 41 l134 0 126 66 c69 36 133 72 141 79 8 7 28 15 43 19 19 4 27
12 24 20 -4 9 0 12 11 9 9 -2 87 29 172 70 359 173 558 241 845 291 299 52
725 59 1185 20 74 -6 355 -52 514 -83 83 -16 153 -28 157 -25 4 2 9 1 11 -3 1
-5 55 -21 118 -37 141 -35 196 -51 577 -173 295 -94 303 -96 323 -78 26 24 25
29 -7 44 -66 30 -661 216 -852 266 -87 23 -108 26 -125 15 -18 -10 -19 -10 -8
1 10 11 3 16 -40 26 -147 34 -620 113 -681 113 -6 0 0 -12 14 -27 24 -28 24
-28 -8 1 -28 25 -43 30 -116 36 -144 14 -535 19 -697 10z"/>
<path d="M3555 2189 c-242 -21 -517 -92 -800 -207 -139 -57 -385 -178 -385
-190 0 -5 3 -12 6 -15 4 -4 8 -34 8 -67 l2 -60 -88 0 c-48 0 -88 2 -88 4 0 2
37 25 83 51 45 27 84 50 86 52 3 2 -2 10 -10 18 -12 12 -28 6 -118 -50 -112
-69 -139 -90 -127 -102 11 -11 215 -16 314 -8 75 6 82 8 70 23 -10 14 -8 13 9
-1 20 -17 45 -17 529 -7 547 12 1076 27 1162 34 51 4 83 18 70 32 -4 3 -34 1
-67 -4 -34 -5 -61 -5 -61 0 0 4 -21 8 -46 8 l-46 0 6 193 c3 105 9 209 12 230
6 35 9 37 43 37 105 0 425 -29 516 -46 l30 -6 -21 22 c-28 29 -73 37 -324 55
-223 16 -599 18 -765 4z m250 -66 c-7 -21 -20 -54 -28 -73 -8 -19 -34 -107
-57 -195 -24 -88 -45 -163 -49 -167 -6 -6 -255 -19 -481 -23 -185 -4 -419 -6
-467 -6 l-42 1 15 37 c26 60 2 126 -56 162 l-30 18 98 46 c53 26 102 47 107
47 6 0 66 21 135 45 239 87 525 140 772 144 l97 1 -14 -37z m110 -239 c-9 -98
-18 -185 -20 -192 -3 -7 -15 -12 -27 -10 -20 3 -23 8 -20 43 4 45 29 185 42
230 5 17 14 50 20 74 6 23 13 41 16 39 2 -3 -3 -85 -11 -184z"/>
<path d="M4656 2129 c14 -13 43 -23 89 -30 72 -10 107 -32 199 -128 22 -22 43
-38 48 -35 4 3 8 -1 8 -8 0 -7 36 -51 80 -98 44 -47 80 -91 80 -97 0 -9 -15
-13 -41 -13 -35 0 -40 -3 -35 -17 6 -16 5 -16 -11 -1 -28 25 -280 13 -314 -14
-24 -19 -23 -19 151 -12 96 4 184 7 195 7 11 -1 83 3 160 8 207 13 334 52 453
139 74 53 67 59 -193 134 -237 69 -562 141 -792 175 -98 15 -101 14 -77 -10z
m365 -79 c136 -25 391 -90 554 -141 l129 -41 -24 -20 c-77 -62 -216 -103 -375
-113 l-90 -6 -38 48 c-21 27 -93 103 -159 171 -67 67 -117 122 -111 122 5 0
56 -9 114 -20z"/>
<path d="M6224 1837 l-27 -24 48 -16 c69 -24 73 -22 34 20 -26 29 -23 27 17
-9 60 -54 65 -55 308 -67 187 -10 243 -24 140 -36 -157 -19 -382 -79 -425
-114 -27 -21 -21 -55 16 -99 38 -46 95 -63 224 -69 96 -5 113 -4 106 8 -7 12
-6 12 7 1 11 -9 31 -11 67 -6 50 6 50 6 72 -30 17 -28 27 -36 51 -36 26 0 29
3 22 23 -3 12 -13 34 -21 50 -9 19 -11 33 -4 45 5 10 9 69 9 132 0 182 -11
189 -288 201 -145 6 -199 12 -249 28 -78 26 -74 26 -107 -2z m574 -262 c4 -76
-7 -85 -106 -85 -56 0 -71 -3 -66 -12 6 -10 4 -10 -7 0 -8 7 -42 12 -88 12
-81 0 -146 22 -146 49 0 9 24 22 58 34 51 17 56 21 45 35 -11 14 -10 14 8 0
17 -15 26 -16 55 -7 60 18 173 38 209 36 l35 -2 3 -60z"/>
<path d="M5661 1710 c-14 -6 -47 -15 -75 -19 -44 -8 -36 -9 60 -10 162 -2 421
11 398 20 -35 12 -357 20 -383 9z"/>
<path d="M4545 1701 c-38 -3 -76 -10 -82 -14 -8 -5 -13 -4 -13 3 0 14 -140 12
-157 -3 -20 -15 -15 -27 12 -27 14 0 25 3 25 8 0 8 112 8 126 0 5 -3 69 -4
141 -1 112 5 135 9 149 24 17 18 15 19 -57 17 -41 -1 -105 -4 -144 -7z"/>
<path d="M5262 1551 c-10 -6 -10 -10 1 -19 11 -9 57 -10 188 -2 96 6 242 15
324 19 135 7 116 8 -175 9 -179 1 -331 -2 -338 -7z"/>
<path d="M5963 1553 c9 -2 23 -2 30 0 6 3 -1 5 -18 5 -16 0 -22 -2 -12 -5z"/>
<path d="M4769 1543 c-153 -3 -156 -4 -180 -29 l-24 -26 110 6 c61 3 178 8
260 11 266 10 318 15 304 31 -12 14 -40 15 -470 7z"/>
<path d="M4090 1523 c-63 -1 -299 -9 -525 -18 -225 -8 -515 -18 -643 -21
l-233 -7 33 -34 33 -34 105 6 c177 9 759 34 1055 45 542 20 626 27 649 50 l20
20 -189 -2 c-105 -1 -242 -3 -305 -5z"/>
<path d="M2520 1473 c-47 -2 -208 -10 -359 -17 l-274 -15 -30 -29 -30 -30 49
-8 c27 -4 117 -2 199 4 83 7 264 17 404 24 l254 12 -37 33 c-25 23 -44 32 -63
31 -16 -1 -66 -3 -113 -5z"/>
<path d="M1615 1429 c-71 -3 -143 -7 -160 -8 -22 -1 -26 -4 -15 -10 8 -5 93
-14 189 -20 l174 -12 31 30 31 31 -60 -2 c-33 -1 -118 -5 -190 -9z"/>
<path d="M1360 1416 c0 -2 11 -6 25 -8 14 -3 25 -1 25 3 0 5 -11 9 -25 9 -14
0 -25 -2 -25 -4z"/>
<path d="M1760 780 l0 -300 50 0 50 0 0 120 0 120 230 0 230 0 0 45 0 45 -230
0 -230 0 0 90 0 90 260 0 260 0 0 45 0 45 -310 0 -310 0 0 -300z"/>
<path d="M2620 781 l0 -301 50 0 50 0 -2 298 -3 297 -47 3 -48 3 0 -300z"/>
<path d="M3256 1058 c-16 -26 -275 -496 -300 -545 l-17 -33 55 0 55 0 31 55
32 55 211 -2 212 -3 28 -52 28 -53 55 0 c31 0 54 4 52 9 -1 5 -75 140 -163
300 l-160 291 -52 0 c-44 0 -55 -4 -67 -22z m214 -365 c0 -10 -36 -13 -150
-13 -92 0 -150 4 -150 10 0 9 88 175 132 248 l20 33 74 -133 c40 -73 73 -139
74 -145z"/>
<path d="M3920 781 l0 -301 55 0 55 0 0 115 0 115 210 0 c211 0 211 0 235 -25
22 -21 25 -33 25 -92 0 -108 3 -113 66 -113 l54 0 0 54 c0 91 -17 157 -50 191
-33 34 -37 45 -17 45 21 0 53 41 67 83 15 47 6 111 -21 155 -37 62 -61 66
-386 70 l-293 4 0 -301z m585 174 c14 -13 25 -30 25 -38 0 -29 -23 -78 -40
-87 -11 -6 -115 -10 -239 -10 l-221 0 0 80 0 80 225 0 226 0 24 -25z"/>
<path d="M5077 983 c-30 -54 -91 -165 -137 -248 -45 -82 -95 -174 -112 -202
l-29 -53 58 0 59 0 27 55 27 55 212 0 213 0 30 -55 29 -55 53 0 c29 0 53 3 53
7 0 3 -72 138 -161 300 l-161 293 -54 0 -53 0 -54 -97z m196 -173 c35 -63 62
-118 60 -122 -5 -10 -303 -11 -303 -1 0 3 34 69 77 146 73 133 77 138 89 116
7 -13 42 -76 77 -139z"/>
</g>
</svg>
