<?xml version="1.0" standalone="no"?>
<!DOCTYPE svg PUBLIC "-//W3C//DTD SVG 20010904//EN"
 "http://www.w3.org/TR/2001/REC-SVG-20010904/DTD/svg10.dtd">
<svg version="1.0" xmlns="http://www.w3.org/2000/svg"
 width="274.000000pt" height="274.000000pt" viewBox="0 0 274.000000 274.000000"
 preserveAspectRatio="xMidYMid meet">

<g transform="translate(0.000000,274.000000) scale(0.100000,-0.100000)"
fill="#000000" stroke="none">
<path d="M2550 2116 c-182 -73 -318 -136 -360 -166 -17 -12 -30 -19 -30 -15 0
8 -84 -36 -92 -49 -4 -6 -8 -7 -8 -3 0 4 -69 -28 -152 -71 l-153 -80 -185 -6
c-263 -10 -580 -46 -580 -67 0 -4 -8 -5 -19 -2 -44 11 -537 -146 -574 -183 -5
-5 -14 -9 -21 -9 -7 0 -64 -22 -126 -50 l-114 -50 68 -3 c54 -2 73 1 89 15 11
10 17 12 13 6 -10 -18 -8 -17 91 23 226 92 479 175 579 190 35 5 44 10 39 22
-4 12 -3 13 9 3 11 -9 29 -10 73 -2 101 19 393 41 532 41 l134 0 126 66 c69
36 133 72 141 79 8 7 28 15 43 19 19 4 27 12 24 20 -4 9 0 12 11 9 9 -2 87 29
172 70 169 81 403 183 435 189 28 5 35 68 8 68 -10 -1 -88 -29 -173 -64z"/>
<path d="M2690 2036 c-227 -89 -520 -226 -520 -244 0 -5 3 -12 6 -15 4 -4 8
-34 8 -67 l2 -60 -88 0 c-48 0 -88 2 -88 4 0 2 37 25 83 51 45 27 84 50 86 52
3 2 -2 10 -10 18 -12 12 -28 6 -118 -50 -112 -69 -139 -90 -127 -102 11 -11
215 -16 314 -8 75 6 82 8 70 23 -11 14 -9 14 8 0 23 -20 109 -23 312 -11 87 5
112 9 112 20 0 12 -17 14 -87 13 -49 -1 -107 -2 -130 -1 l-42 1 15 37 c26 60
2 126 -56 162 l-30 18 98 46 c53 26 101 47 106 47 5 0 35 10 67 21 43 16 59
27 59 40 0 22 -4 23 -50 5z"/>
<path d="M2320 1473 c-47 -2 -208 -10 -359 -17 l-274 -15 -30 -29 -30 -30 49
-8 c27 -4 117 -2 199 4 83 7 264 17 404 24 l254 12 -37 33 c-25 23 -44 32 -63
31 -16 -1 -66 -3 -113 -5z"/>
<path d="M2521 1444 l36 -36 92 7 91 8 0 28 0 29 -127 0 -128 0 36 -36z"/>
<path d="M1415 1429 c-71 -3 -143 -7 -160 -8 -22 -1 -26 -4 -15 -10 8 -5 93
-14 189 -20 l174 -12 31 30 31 31 -60 -2 c-33 -1 -118 -5 -190 -9z"/>
<path d="M1160 1416 c0 -2 11 -6 25 -8 14 -3 25 -1 25 3 0 5 -11 9 -25 9 -14
0 -25 -2 -25 -4z"/>
<path d="M1560 780 l0 -300 50 0 50 0 0 120 0 120 230 0 230 0 0 45 0 45 -230
0 -230 0 0 90 0 90 260 0 260 0 0 45 0 45 -310 0 -310 0 0 -300z"/>
<path d="M2420 781 l0 -301 50 0 50 0 -2 298 -3 297 -47 3 -48 3 0 -300z"/>
</g>
</svg>
